<?xml version="1.0" encoding="utf-8"?>
<!-- Generator: Adobe Illustrator 16.0.0, SVG Export Plug-In . SVG Version: 6.00 Build 0)  -->
<!DOCTYPE svg PUBLIC "-//W3C//DTD SVG 1.1//EN" "http://www.w3.org/Graphics/SVG/1.1/DTD/svg11.dtd">
<svg version="1.1" id="Layer_1" xmlns="http://www.w3.org/2000/svg" xmlns:xlink="http://www.w3.org/1999/xlink" x="0px" y="0px"
	 width="512px" height="512px" viewBox="0 0 512 512" enable-background="new 0 0 512 512" xml:space="preserve">
<path fill="#E74C3C" d="M512,432c0,44.182-35.816,80-80,80H80c-44.183,0-80-35.818-80-80V80C0,35.817,35.818,0,80,0h352
	c44.184,0,80,35.817,80,80V432z"/>
<path fill="#C0392B" d="M332.831,85.987L321.33,97.486L309.844,86l-17.865,17.865L274.113,86l-11.406,11.405l-11.389-11.39
	l-24.531,24.531l-24.531-24.531L187.56,100.71L172.849,86L161.14,97.708l15.292,15.293l-18.97,18.969l50.867,50.867l18.969-18.97
	l14.417,14.417l6.941-6.941l9.534,9.533l11.404-11.405l11.391,11.39l18.503-18.503l33.489,33.489l-82.456,82.456l13.553,13.553
	L157.306,398.623L270.682,512H432c14.967,0,28.965-4.121,40.944-11.273c7.947-4.743,15.01-10.819,20.86-17.934
	C505.173,468.977,512,451.287,512,432V312.75v-25.299v-22.295L332.831,85.987z"/>
<polygon fill="#FFFFFF" points="135.317,152.138 157.294,398.619 255.94,426 354.668,398.63 376.684,152.138 "/>
<polygon fill="#FFFFFF" points="172.827,116.572 186.877,116.572 186.877,131.97 202.254,131.97 202.254,86 186.877,86 
	186.877,101.188 172.827,101.188 172.827,86 157.462,86 157.462,131.97 172.827,131.97 "/>
<polygon fill="#FFFFFF" points="222.448,131.97 237.819,131.97 237.819,101.249 251.334,101.249 251.334,86 208.934,86 
	208.934,101.249 222.448,101.249 "/>
<polygon fill="#FFFFFF" points="273.105,109.195 283.688,125.528 283.943,125.528 294.514,109.195 294.514,131.97 309.823,131.97 
	309.823,86 293.793,86 283.943,102.177 274.096,86 258.081,86 258.081,131.97 273.105,131.97 "/>
<polygon fill="#FFFFFF" points="354.438,116.782 332.829,116.782 332.829,86 317.463,86 317.463,131.97 354.438,131.97 "/>
<path fill="#E74C3C" d="M331.688,202.702l0.016-0.17h-75.702h-75.716L194.448,361l30.633,8l-5.678-65.801l38.55,9.523l0.048-0.014
	l65.972-17.166l8.29-92.841H331.688z M295.709,272.16l-37.7,9.098l-0.049,0.014l-41.226-8.996l-3.394-39.326h42.668h43.212
	L295.709,272.16z"/>
</svg>
