<?xml version="1.0" encoding="utf-8"?>
<!-- Generator: Adobe Illustrator 16.0.0, SVG Export Plug-In . SVG Version: 6.00 Build 0)  -->
<!DOCTYPE svg PUBLIC "-//W3C//DTD SVG 1.1//EN" "http://www.w3.org/Graphics/SVG/1.1/DTD/svg11.dtd">
<svg version="1.1" id="Layer_1" xmlns="http://www.w3.org/2000/svg" xmlns:xlink="http://www.w3.org/1999/xlink" x="0px" y="0px"
	 width="64px" height="64px" viewBox="0 0 64 64" enable-background="new 0 0 64 64" xml:space="preserve">
<g id="Layer_2">
</g>
<path fill="#DBC1A5" d="M53,11H34.4l-4.2,8.4H6.8V53h50.4V11H53z M53,19.4H36.6l2.2-4.2H53V19.4z"/>
<polygon fill="#B28447" points="54.131,43.771 43.034,32.701 42.25,31.919 41.466,32.701 30.371,43.771 29.586,44.553 
	30.371,45.336 32.96,47.919 33.744,48.701 34.529,47.919 39.292,43.166 39.292,59.311 39.292,60.417 40.401,60.417 44.1,60.417 
	45.209,60.417 45.209,59.311 45.209,43.166 49.972,47.919 50.757,48.701 51.541,47.919 54.131,45.336 54.915,44.553 "/>
</svg>
