<?xml version="1.0" encoding="utf-8"?>
<!-- Generator: Adobe Illustrator 16.0.4, SVG Export Plug-In . SVG Version: 6.00 Build 0)  -->
<!DOCTYPE svg PUBLIC "-//W3C//DTD SVG 1.1//EN" "http://www.w3.org/Graphics/SVG/1.1/DTD/svg11.dtd">
<svg version="1.1" id="Layer_3" xmlns="http://www.w3.org/2000/svg" xmlns:xlink="http://www.w3.org/1999/xlink" x="0px" y="0px"
	 width="64px" height="64px" viewBox="0 0 64 64" enable-background="new 0 0 64 64" xml:space="preserve">
<g>
	<g>
		<g>
			<path fill="#474A4C" d="M48.303,59.509H15.696c-2.369,0-4.296-1.928-4.296-4.296V8.788c0-2.369,1.928-4.296,4.296-4.296h18.985
				c2.084,0,4.869,1.154,6.344,2.627l8.947,8.949c1.473,1.473,2.627,4.259,2.627,6.343v32.803
				C52.6,57.581,50.672,59.509,48.303,59.509z M15.696,6.475c-1.276,0-2.313,1.037-2.313,2.313v46.425
				c0,1.274,1.037,2.312,2.313,2.312h32.606c1.277,0,2.314-1.038,2.314-2.312V22.41c0-1.543-0.957-3.851-2.047-4.941l-8.947-8.947
				c-1.09-1.09-3.4-2.046-4.941-2.046H15.696z"/>
			<path fill="#474A4C" d="M48.303,60H15.696c-2.64,0-4.788-2.148-4.788-4.787V8.788c0-2.64,2.147-4.788,4.788-4.788h18.985
				c2.197,0,5.135,1.217,6.691,2.771l8.947,8.949c1.553,1.554,2.771,4.493,2.771,6.69v32.803C53.092,57.852,50.943,60,48.303,60z
				 M15.696,4.982c-2.098,0-3.805,1.707-3.805,3.805v46.425c0,2.098,1.707,3.805,3.805,3.805h32.606c2.1,0,3.807-1.707,3.807-3.805
				V22.41c0-1.97-1.092-4.603-2.484-5.996l-8.947-8.949c-1.395-1.392-4.027-2.483-5.996-2.483H15.696z M48.303,58.017H15.696
				c-1.546,0-2.805-1.258-2.805-2.804V8.788c0-1.547,1.258-2.805,2.805-2.805h18.985c1.68,0,4.102,1.003,5.289,2.19l8.947,8.948
				c1.188,1.188,2.189,3.609,2.189,5.289v32.803C51.107,56.759,49.85,58.017,48.303,58.017z M15.696,6.966
				c-1.004,0-1.822,0.817-1.822,1.822v46.425c0,1.004,0.817,1.821,1.822,1.821h32.606c1.006,0,1.822-0.817,1.822-1.821V22.41
				c0-1.409-0.906-3.598-1.902-4.594l-8.947-8.948c-0.996-0.996-3.186-1.902-4.594-1.902H15.696z"/>
		</g>
	</g>
	<g>
		<g>
			<path fill="#474A4C" d="M48.303,20.095h-7.012c-2.367,0-4.295-1.927-4.295-4.296V8.788c0-1.992,1.066-2.698,1.984-2.698
				c0.672,0,1.361,0.346,2.043,1.028l8.949,8.949c1.246,1.246,1.096,2.246,0.895,2.73C50.666,19.283,50.066,20.095,48.303,20.095z
				 M39.072,8.104c-0.041,0.105-0.094,0.313-0.094,0.683v7.011c0,1.276,1.037,2.313,2.312,2.313h7.012
				c0.369,0,0.578-0.053,0.684-0.094c-0.045-0.104-0.154-0.29-0.416-0.55l-8.947-8.947C39.361,8.26,39.176,8.15,39.072,8.104z"/>
			<path fill="#474A4C" d="M48.303,20.586h-7.012c-2.639,0-4.787-2.147-4.787-4.788V8.788c0-2.203,1.244-3.189,2.477-3.189
				c0.809,0,1.613,0.394,2.391,1.172l8.947,8.948c1.447,1.446,1.25,2.667,1.004,3.265C51.072,19.584,50.35,20.586,48.303,20.586z
				 M38.98,6.581c-0.723,0-1.494,0.579-1.494,2.207v7.011c0,2.099,1.707,3.805,3.805,3.805h7.012c1.477,0,1.957-0.624,2.111-0.996
				c0.152-0.371,0.254-1.151-0.789-2.194l-8.947-8.949C40.09,6.878,39.52,6.581,38.98,6.581z M48.303,18.604h-7.012
				c-1.545,0-2.803-1.258-2.803-2.805V8.788c0-0.355,0.043-0.645,0.127-0.862l0.188-0.479l0.469,0.208
				c0.215,0.096,0.449,0.27,0.699,0.518l8.947,8.948c0.25,0.248,0.424,0.484,0.518,0.701l0.205,0.468l-0.477,0.186
				C48.947,18.561,48.658,18.604,48.303,18.604z M39.471,9.063v6.736c0,1.005,0.816,1.822,1.82,1.822h6.736L39.471,9.063z"/>
		</g>
	</g>
	<g>
		<g>
			<path fill="#474A4C" d="M44.797,37.998H19.051c-0.547,0-0.991-0.444-0.991-0.992c0-0.547,0.444-0.99,0.991-0.99h25.746
				c0.547,0,0.992,0.443,0.992,0.99C45.789,37.554,45.344,37.998,44.797,37.998z"/>
			<path fill="#474A4C" d="M44.797,38.489H19.051c-0.817,0-1.482-0.665-1.482-1.483c0-0.817,0.665-1.481,1.482-1.481h25.746
				c0.818,0,1.482,0.664,1.482,1.481C46.279,37.824,45.615,38.489,44.797,38.489z M19.051,36.507c-0.276,0-0.5,0.224-0.5,0.499
				c0,0.276,0.224,0.501,0.5,0.501h25.746c0.275,0,0.5-0.225,0.5-0.501c0-0.275-0.225-0.499-0.5-0.499H19.051z"/>
		</g>
	</g>
	<g>
		<g>
			<path fill="#474A4C" d="M44.797,28.612H19.051c-0.547,0-0.991-0.443-0.991-0.992c0-0.548,0.444-0.991,0.991-0.991h25.746
				c0.547,0,0.992,0.443,0.992,0.991C45.789,28.169,45.344,28.612,44.797,28.612z"/>
			<path fill="#474A4C" d="M44.797,29.104H19.051c-0.817,0-1.482-0.666-1.482-1.483c0-0.817,0.665-1.482,1.482-1.482h25.746
				c0.818,0,1.482,0.665,1.482,1.482C46.279,28.438,45.615,29.104,44.797,29.104z M19.051,27.12c-0.276,0-0.5,0.224-0.5,0.5
				c0,0.276,0.224,0.501,0.5,0.501h25.746c0.275,0,0.5-0.225,0.5-0.501c0-0.276-0.225-0.5-0.5-0.5H19.051z"/>
		</g>
	</g>
	<g>
		<g>
			<path fill="#474A4C" d="M32.822,20.095H19.051c-0.547,0-0.991-0.443-0.991-0.991s0.444-0.992,0.991-0.992h13.771
				c0.547,0,0.992,0.444,0.992,0.992S33.369,20.095,32.822,20.095z"/>
			<path fill="#474A4C" d="M32.822,20.586H19.051c-0.817,0-1.482-0.665-1.482-1.482c0-0.818,0.665-1.483,1.482-1.483h13.771
				c0.816,0,1.482,0.666,1.482,1.483C34.305,19.922,33.639,20.586,32.822,20.586z M19.051,18.604c-0.276,0-0.5,0.225-0.5,0.501
				c0,0.276,0.224,0.5,0.5,0.5h13.771c0.275,0,0.5-0.224,0.5-0.5c0-0.276-0.225-0.501-0.5-0.501H19.051z"/>
		</g>
	</g>
	<g>
		<g>
			<path fill="#474A4C" d="M44.797,46.949H19.051c-0.547,0-0.991-0.443-0.991-0.991s0.444-0.992,0.991-0.992h25.746
				c0.547,0,0.992,0.444,0.992,0.992S45.344,46.949,44.797,46.949z"/>
			<path fill="#474A4C" d="M44.797,47.44H19.051c-0.817,0-1.482-0.665-1.482-1.482s0.665-1.483,1.482-1.483h25.746
				c0.818,0,1.482,0.666,1.482,1.483S45.615,47.44,44.797,47.44z M19.051,45.457c-0.276,0-0.5,0.225-0.5,0.501
				c0,0.275,0.224,0.5,0.5,0.5h25.746c0.275,0,0.5-0.225,0.5-0.5c0-0.276-0.225-0.501-0.5-0.501H19.051z"/>
		</g>
	</g>
</g>
</svg>
