<?xml version="1.0" encoding="utf-8"?>
<!-- Generator: Adobe Illustrator 16.0.4, SVG Export Plug-In . SVG Version: 6.00 Build 0)  -->
<!DOCTYPE svg PUBLIC "-//W3C//DTD SVG 1.1//EN" "http://www.w3.org/Graphics/SVG/1.1/DTD/svg11.dtd">
<svg version="1.1" id="Layer_1" xmlns="http://www.w3.org/2000/svg" xmlns:xlink="http://www.w3.org/1999/xlink" x="0px" y="0px"
	 width="2600px" height="2600px" viewBox="0 0 2600 2600" enable-background="new 0 0 2600 2600" xml:space="preserve">
<path id="path4" fill="#1B5EAB" d="M1534.266,1924.168H1300V1674.5h-234.266v-249.667H1300V1674.5h234.266 M1534.266,925.5H1300
	v249.667h234.266v249.666H1300v-249.666h-234.266V925.5H1300V675.833h-234.266V426.167H1300v249.665h234.266 M2119.93,176.5H480.071
	c-130.003,0-234.265,111.117-234.265,249.667v1747.666c0,137.883,104.888,249.667,234.265,249.667H2119.93
	c129.375,0,234.264-111.784,234.264-249.667V426.167C2354.193,287.617,2248.732,176.5,2119.93,176.5z"/>
</svg>
